<?xml version="1.0" encoding="utf-8"?>
<!-- Generator: Adobe Illustrator 28.1.0, SVG Export Plug-In . SVG Version: 6.00 Build 0)  -->
<svg version="1.1" id="Layer_1" xmlns="http://www.w3.org/2000/svg" xmlns:xlink="http://www.w3.org/1999/xlink" x="0px" y="0px"
	 viewBox="0 0 2383.9 1750" style="enable-background:new 0 0 2383.9 1750;" xml:space="preserve">
<style type="text/css">
	.st0{font-family:'LMSans10-Regular';}
	.st1{font-size:40px;}
	.st2{fill:none;stroke:#000000;stroke-width:2;stroke-miterlimit:10;}
</style>
<image style="overflow:visible;enable-background:new    ;" width="3641" height="3634" xlink:href="4DBC684DD1DE7792.png"  transform="matrix(1 0 0 1 -8.2717 -1885)">
</image>
<text transform="matrix(1 0 0 1 673.7886 630.28)" class="st0 st1">Prélaz</text>
<line class="st2" x1="721.2" y1="641.1" x2="1056.6" y2="955.7"/>
<text transform="matrix(1 0 0 1 1075.4377 592.4465)" class="st0 st1">Ponthaise</text>
<text transform="matrix(1 0 0 1 1423.2557 1274.7188)" class="st0 st1">Georgette</text>
<image style="overflow:visible;enable-background:new    ;" width="256" height="256" xlink:href="4DBC684DD1DE7797.png"  transform="matrix(1.112435e-08 -0.4869 0.4869 1.112435e-08 2053.7314 1658.8328)">
</image>
<text transform="matrix(1 0 0 1 1830.6648 1695.762)" class="st0 st1">Discontinuity</text>
<text transform="matrix(1 0 0 1 2181.8699 1534.1948)" class="st0 st1">Continuity</text>
<text transform="matrix(1 0 0 1 1936.6632 1534.1938)" class="st0 st1">Fusion</text>
<text transform="matrix(1 0 0 1 2184.5498 1695.7622)" class="st0 st1">Division</text>
<text transform="matrix(1 0 0 1 1109.798 1144.5693)" class="st0 st1">Montbenon</text>
</svg>
